<mxfile host="app.diagrams.net" agent="Mozilla/5.0 (Windows NT 10.0; Win64; x64) AppleWebKit/537.36 (KHTML, like Gecko) Chrome/130.0.0.0 Safari/537.36 Edg/130.0.0.0" version="24.8.3">
  <diagram name="Page-1" id="9W-sOv-dYj6pa3i9w2rR">
    <mxGraphModel dx="1449" dy="651" grid="1" gridSize="10" guides="1" tooltips="1" connect="1" arrows="1" fold="1" page="1" pageScale="1" pageWidth="850" pageHeight="1100" math="0" shadow="0">
      <root>
        <mxCell id="0" />
        <mxCell id="1" parent="0" />
        <mxCell id="gUsLZl85WhMoBVwIoA4Z-2" value="" style="edgeStyle=orthogonalEdgeStyle;rounded=0;orthogonalLoop=1;jettySize=auto;html=1;" parent="1" source="18TPVLA24jC4sj1wfvUi-1" target="gUsLZl85WhMoBVwIoA4Z-1" edge="1">
          <mxGeometry relative="1" as="geometry" />
        </mxCell>
        <mxCell id="18TPVLA24jC4sj1wfvUi-1" value="MESH_driver.f90" style="rounded=1;whiteSpace=wrap;html=1;fillColor=#FFCCCC;" parent="1" vertex="1">
          <mxGeometry x="412" y="30" width="120" height="60" as="geometry" />
        </mxCell>
        <mxCell id="gUsLZl85WhMoBVwIoA4Z-5" value="" style="edgeStyle=orthogonalEdgeStyle;rounded=0;orthogonalLoop=1;jettySize=auto;html=1;" parent="1" source="gUsLZl85WhMoBVwIoA4Z-1" target="gUsLZl85WhMoBVwIoA4Z-4" edge="1">
          <mxGeometry relative="1" as="geometry" />
        </mxCell>
        <mxCell id="gUsLZl85WhMoBVwIoA4Z-1" value="Variable declaration and initialization e.g. shd, fls, etc." style="whiteSpace=wrap;html=1;fillColor=#FFFFFF;rounded=1;" parent="1" vertex="1">
          <mxGeometry x="397" y="120" width="150" height="60" as="geometry" />
        </mxCell>
        <mxCell id="gUsLZl85WhMoBVwIoA4Z-7" value="" style="edgeStyle=orthogonalEdgeStyle;rounded=0;orthogonalLoop=1;jettySize=auto;html=1;" parent="1" source="gUsLZl85WhMoBVwIoA4Z-4" target="gUsLZl85WhMoBVwIoA4Z-6" edge="1">
          <mxGeometry relative="1" as="geometry" />
        </mxCell>
        <mxCell id="gUsLZl85WhMoBVwIoA4Z-4" value="call MPI_Init&lt;div&gt;call MPI_Comm_size&lt;br&gt;&lt;/div&gt;&lt;div&gt;call MPI_Comm_rank&lt;br&gt;&lt;/div&gt;" style="whiteSpace=wrap;html=1;fillColor=#FFE599;rounded=1;" parent="1" vertex="1">
          <mxGeometry x="395.75" y="200" width="152.5" height="70" as="geometry" />
        </mxCell>
        <mxCell id="gUsLZl85WhMoBVwIoA4Z-9" value="" style="edgeStyle=orthogonalEdgeStyle;rounded=0;orthogonalLoop=1;jettySize=auto;html=1;" parent="1" source="gUsLZl85WhMoBVwIoA4Z-6" target="gUsLZl85WhMoBVwIoA4Z-8" edge="1">
          <mxGeometry relative="1" as="geometry" />
        </mxCell>
        <mxCell id="gUsLZl85WhMoBVwIoA4Z-6" value="Check and get command line arguments" style="whiteSpace=wrap;html=1;fillColor=#FFFFFF;rounded=1;" parent="1" vertex="1">
          <mxGeometry x="401" y="290" width="140.25" height="70" as="geometry" />
        </mxCell>
        <mxCell id="gUsLZl85WhMoBVwIoA4Z-13" value="" style="edgeStyle=orthogonalEdgeStyle;rounded=0;orthogonalLoop=1;jettySize=auto;html=1;" parent="1" source="gUsLZl85WhMoBVwIoA4Z-8" target="gUsLZl85WhMoBVwIoA4Z-12" edge="1">
          <mxGeometry relative="1" as="geometry" />
        </mxCell>
        <mxCell id="gUsLZl85WhMoBVwIoA4Z-8" value="call Init_fls(fls)" style="whiteSpace=wrap;html=1;fillColor=#CCFFCC;rounded=1;" parent="1" vertex="1">
          <mxGeometry x="407.5" y="380" width="127.26" height="60" as="geometry" />
        </mxCell>
        <mxCell id="gUsLZl85WhMoBVwIoA4Z-15" value="" style="edgeStyle=orthogonalEdgeStyle;rounded=0;orthogonalLoop=1;jettySize=auto;html=1;" parent="1" source="gUsLZl85WhMoBVwIoA4Z-12" target="gUsLZl85WhMoBVwIoA4Z-14" edge="1">
          <mxGeometry relative="1" as="geometry" />
        </mxCell>
        <mxCell id="gUsLZl85WhMoBVwIoA4Z-12" value="call READ_INITIAL_INPUTS(fls, shd, cm, RELEASE_STRING)" style="whiteSpace=wrap;html=1;fillColor=#CCFFCC;rounded=1;" parent="1" vertex="1">
          <mxGeometry x="369.69" y="470" width="202.87" height="60" as="geometry" />
        </mxCell>
        <mxCell id="gUsLZl85WhMoBVwIoA4Z-17" value="" style="edgeStyle=orthogonalEdgeStyle;rounded=0;orthogonalLoop=1;jettySize=auto;html=1;" parent="1" source="gUsLZl85WhMoBVwIoA4Z-14" edge="1">
          <mxGeometry relative="1" as="geometry">
            <mxPoint x="472.17647058823536" y="630" as="targetPoint" />
          </mxGeometry>
        </mxCell>
        <mxCell id="gUsLZl85WhMoBVwIoA4Z-14" value="call MPI_Barrier" style="whiteSpace=wrap;html=1;fillColor=#FFE599;rounded=1;" parent="1" vertex="1">
          <mxGeometry x="409.01" y="560" width="124.25" height="40" as="geometry" />
        </mxCell>
        <mxCell id="gUsLZl85WhMoBVwIoA4Z-20" value="" style="edgeStyle=orthogonalEdgeStyle;rounded=0;orthogonalLoop=1;jettySize=auto;html=1;" parent="1" source="gUsLZl85WhMoBVwIoA4Z-18" target="gUsLZl85WhMoBVwIoA4Z-19" edge="1">
          <mxGeometry relative="1" as="geometry" />
        </mxCell>
        <mxCell id="gUsLZl85WhMoBVwIoA4Z-24" value="Yes" style="edgeLabel;html=1;align=center;verticalAlign=middle;resizable=0;points=[];" parent="gUsLZl85WhMoBVwIoA4Z-20" vertex="1" connectable="0">
          <mxGeometry x="-0.2063" y="-2" relative="1" as="geometry">
            <mxPoint as="offset" />
          </mxGeometry>
        </mxCell>
        <mxCell id="p7XIC2yZWXtVVPwYK1yz-4" style="edgeStyle=orthogonalEdgeStyle;rounded=0;orthogonalLoop=1;jettySize=auto;html=1;entryX=0.5;entryY=0;entryDx=0;entryDy=0;" parent="1" source="gUsLZl85WhMoBVwIoA4Z-18" target="p7XIC2yZWXtVVPwYK1yz-3" edge="1">
          <mxGeometry relative="1" as="geometry" />
        </mxCell>
        <mxCell id="gUsLZl85WhMoBVwIoA4Z-18" value="&lt;div&gt;ro%RUNCLIM == True&lt;/div&gt;" style="rhombus;whiteSpace=wrap;html=1;rounded=1;fillColor=#F19C99;" parent="1" vertex="1">
          <mxGeometry x="379" y="630" width="186.89" height="60" as="geometry" />
        </mxCell>
        <mxCell id="gUsLZl85WhMoBVwIoA4Z-19" value="call open_input_forcing_files" style="whiteSpace=wrap;html=1;fillColor=#FFE599;rounded=1;" parent="1" vertex="1">
          <mxGeometry x="650.01" y="635" width="169.99" height="50" as="geometry" />
        </mxCell>
        <mxCell id="gUsLZl85WhMoBVwIoA4Z-31" style="edgeStyle=orthogonalEdgeStyle;rounded=0;orthogonalLoop=1;jettySize=auto;html=1;entryX=0.5;entryY=0;entryDx=0;entryDy=0;" parent="1" source="gUsLZl85WhMoBVwIoA4Z-26" target="gUsLZl85WhMoBVwIoA4Z-30" edge="1">
          <mxGeometry relative="1" as="geometry" />
        </mxCell>
        <mxCell id="gUsLZl85WhMoBVwIoA4Z-26" value="call output_variables_init(shd)&lt;div&gt;call output_variables_activate(out%d%grid, VN_QO)&lt;br&gt;&lt;/div&gt;" style="whiteSpace=wrap;html=1;fillColor=#CCFFCC;rounded=1;" parent="1" vertex="1">
          <mxGeometry x="365.61" y="910" width="226.19" height="60" as="geometry" />
        </mxCell>
        <mxCell id="gUsLZl85WhMoBVwIoA4Z-33" value="" style="edgeStyle=orthogonalEdgeStyle;rounded=0;orthogonalLoop=1;jettySize=auto;html=1;" parent="1" source="gUsLZl85WhMoBVwIoA4Z-30" target="gUsLZl85WhMoBVwIoA4Z-32" edge="1">
          <mxGeometry relative="1" as="geometry" />
        </mxCell>
        <mxCell id="gUsLZl85WhMoBVwIoA4Z-34" value="Yes" style="edgeLabel;html=1;align=center;verticalAlign=middle;resizable=0;points=[];" parent="gUsLZl85WhMoBVwIoA4Z-33" vertex="1" connectable="0">
          <mxGeometry x="-0.3816" y="1" relative="1" as="geometry">
            <mxPoint as="offset" />
          </mxGeometry>
        </mxCell>
        <mxCell id="gUsLZl85WhMoBVwIoA4Z-38" style="edgeStyle=orthogonalEdgeStyle;rounded=0;orthogonalLoop=1;jettySize=auto;html=1;entryX=0.5;entryY=0;entryDx=0;entryDy=0;" parent="1" source="gUsLZl85WhMoBVwIoA4Z-30" target="gUsLZl85WhMoBVwIoA4Z-37" edge="1">
          <mxGeometry relative="1" as="geometry" />
        </mxCell>
        <mxCell id="gUsLZl85WhMoBVwIoA4Z-30" value="&lt;div&gt;ro%RUNTILE == True&lt;/div&gt;" style="rhombus;whiteSpace=wrap;html=1;rounded=1;fillColor=#F19C99;" parent="1" vertex="1">
          <mxGeometry x="386.11" y="1010" width="186.89" height="60" as="geometry" />
        </mxCell>
        <mxCell id="gUsLZl85WhMoBVwIoA4Z-32" value="&lt;div&gt;call run_within_tile_init(fls, shd, cm)&lt;/div&gt;&lt;div&gt;&amp;nbsp; call run_within_grid_init(fls, shd, cm)&lt;/div&gt;" style="whiteSpace=wrap;html=1;fillColor=#CCFFCC;rounded=1;" parent="1" vertex="1">
          <mxGeometry x="115" y="1010" width="210" height="60" as="geometry" />
        </mxCell>
        <mxCell id="gUsLZl85WhMoBVwIoA4Z-45" style="edgeStyle=orthogonalEdgeStyle;rounded=0;orthogonalLoop=1;jettySize=auto;html=1;entryX=0.5;entryY=0;entryDx=0;entryDy=0;" parent="1" source="gUsLZl85WhMoBVwIoA4Z-37" target="gUsLZl85WhMoBVwIoA4Z-44" edge="1">
          <mxGeometry relative="1" as="geometry" />
        </mxCell>
        <mxCell id="gUsLZl85WhMoBVwIoA4Z-37" value="&lt;div&gt;ro%RUNGRID == True&lt;/div&gt;" style="rhombus;whiteSpace=wrap;html=1;rounded=1;fillColor=#F19C99;" parent="1" vertex="1">
          <mxGeometry x="385.65" y="1110" width="186.89" height="60" as="geometry" />
        </mxCell>
        <mxCell id="gUsLZl85WhMoBVwIoA4Z-39" value="" style="edgeStyle=orthogonalEdgeStyle;rounded=0;orthogonalLoop=1;jettySize=auto;html=1;exitX=0;exitY=0.5;exitDx=0;exitDy=0;" parent="1" source="gUsLZl85WhMoBVwIoA4Z-37" target="gUsLZl85WhMoBVwIoA4Z-41" edge="1">
          <mxGeometry relative="1" as="geometry">
            <mxPoint x="396" y="1050" as="sourcePoint" />
            <mxPoint x="315" y="1140" as="targetPoint" />
          </mxGeometry>
        </mxCell>
        <mxCell id="gUsLZl85WhMoBVwIoA4Z-40" value="Yes" style="edgeLabel;html=1;align=center;verticalAlign=middle;resizable=0;points=[];" parent="gUsLZl85WhMoBVwIoA4Z-39" vertex="1" connectable="0">
          <mxGeometry x="-0.3816" y="1" relative="1" as="geometry">
            <mxPoint as="offset" />
          </mxGeometry>
        </mxCell>
        <mxCell id="gUsLZl85WhMoBVwIoA4Z-41" value="call run_between_grid_init(fls, shd, cm)" style="whiteSpace=wrap;html=1;fillColor=#CCFFCC;rounded=1;" parent="1" vertex="1">
          <mxGeometry x="115" y="1120" width="230" height="40" as="geometry" />
        </mxCell>
        <mxCell id="gUsLZl85WhMoBVwIoA4Z-50" style="edgeStyle=orthogonalEdgeStyle;rounded=0;orthogonalLoop=1;jettySize=auto;html=1;entryX=0.5;entryY=0;entryDx=0;entryDy=0;" parent="1" source="gUsLZl85WhMoBVwIoA4Z-44" target="gUsLZl85WhMoBVwIoA4Z-49" edge="1">
          <mxGeometry relative="1" as="geometry" />
        </mxCell>
        <mxCell id="gUsLZl85WhMoBVwIoA4Z-44" value="&lt;div&gt;ISHEADNODE == True&lt;/div&gt;" style="rhombus;whiteSpace=wrap;html=1;rounded=1;fillColor=#F19C99;" parent="1" vertex="1">
          <mxGeometry x="385.65" y="1210" width="186.89" height="60" as="geometry" />
        </mxCell>
        <mxCell id="gUsLZl85WhMoBVwIoA4Z-46" value="&lt;div&gt;&lt;span style=&quot;background-color: initial;&quot;&gt;call output_files_init(fls, shd)&lt;/span&gt;&lt;br&gt;&lt;/div&gt;&lt;div&gt;&lt;div&gt;&lt;span style=&quot;background-color: initial;&quot;&gt;call run_save_basin_output_init(fls, shd, cm)&lt;/span&gt;&lt;/div&gt;&lt;/div&gt;" style="whiteSpace=wrap;html=1;fillColor=#CCFFCC;rounded=1;" parent="1" vertex="1">
          <mxGeometry x="70" y="1197.5" width="240" height="85" as="geometry" />
        </mxCell>
        <mxCell id="gUsLZl85WhMoBVwIoA4Z-47" value="" style="edgeStyle=orthogonalEdgeStyle;rounded=0;orthogonalLoop=1;jettySize=auto;html=1;exitX=0;exitY=0.5;exitDx=0;exitDy=0;entryX=1;entryY=0.5;entryDx=0;entryDy=0;" parent="1" source="gUsLZl85WhMoBVwIoA4Z-44" edge="1">
          <mxGeometry relative="1" as="geometry">
            <mxPoint x="396" y="1150" as="sourcePoint" />
            <mxPoint x="350" y="1240" as="targetPoint" />
          </mxGeometry>
        </mxCell>
        <mxCell id="gUsLZl85WhMoBVwIoA4Z-48" value="Yes" style="edgeLabel;html=1;align=center;verticalAlign=middle;resizable=0;points=[];" parent="gUsLZl85WhMoBVwIoA4Z-47" vertex="1" connectable="0">
          <mxGeometry x="-0.3816" y="1" relative="1" as="geometry">
            <mxPoint as="offset" />
          </mxGeometry>
        </mxCell>
        <mxCell id="gUsLZl85WhMoBVwIoA4Z-54" style="edgeStyle=orthogonalEdgeStyle;rounded=0;orthogonalLoop=1;jettySize=auto;html=1;entryX=1;entryY=0.5;entryDx=0;entryDy=0;" parent="1" source="gUsLZl85WhMoBVwIoA4Z-49" target="gUsLZl85WhMoBVwIoA4Z-52" edge="1">
          <mxGeometry relative="1" as="geometry" />
        </mxCell>
        <mxCell id="gUsLZl85WhMoBVwIoA4Z-55" value="Yes" style="edgeLabel;html=1;align=center;verticalAlign=middle;resizable=0;points=[];" parent="gUsLZl85WhMoBVwIoA4Z-54" vertex="1" connectable="0">
          <mxGeometry x="-0.4359" y="3" relative="1" as="geometry">
            <mxPoint as="offset" />
          </mxGeometry>
        </mxCell>
        <mxCell id="gUsLZl85WhMoBVwIoA4Z-57" value="" style="edgeStyle=orthogonalEdgeStyle;rounded=0;orthogonalLoop=1;jettySize=auto;html=1;" parent="1" source="gUsLZl85WhMoBVwIoA4Z-49" target="gUsLZl85WhMoBVwIoA4Z-56" edge="1">
          <mxGeometry relative="1" as="geometry">
            <mxPoint x="491.8370588235295" y="1439.995821858723" as="sourcePoint" />
          </mxGeometry>
        </mxCell>
        <mxCell id="gUsLZl85WhMoBVwIoA4Z-49" value="&lt;div&gt;ISHEADNODE .and. mtsflg%AUTOCALIBRATIONFLAG &amp;gt; 0&lt;/div&gt;" style="rhombus;whiteSpace=wrap;html=1;rounded=1;fillColor=#F19C99;" parent="1" vertex="1">
          <mxGeometry x="344.88" y="1310" width="269.35" height="100" as="geometry" />
        </mxCell>
        <mxCell id="gUsLZl85WhMoBVwIoA4Z-52" value="call stats_init(fls)" style="whiteSpace=wrap;html=1;fillColor=#FFE599;rounded=1;" parent="1" vertex="1">
          <mxGeometry x="135" y="1343.75" width="150" height="32.5" as="geometry" />
        </mxCell>
        <mxCell id="UAfRKVxCkWyeIEof-MYr-5" style="edgeStyle=orthogonalEdgeStyle;rounded=0;orthogonalLoop=1;jettySize=auto;html=1;" parent="1" source="gUsLZl85WhMoBVwIoA4Z-56" target="UAfRKVxCkWyeIEof-MYr-2" edge="1">
          <mxGeometry relative="1" as="geometry" />
        </mxCell>
        <mxCell id="gUsLZl85WhMoBVwIoA4Z-56" value="call resumerun_read(fls, shd, cm" style="whiteSpace=wrap;html=1;fillColor=#CCFFCC;rounded=1;" parent="1" vertex="1">
          <mxGeometry x="381.59999999999997" y="1440" width="195.91" height="50" as="geometry" />
        </mxCell>
        <mxCell id="gUsLZl85WhMoBVwIoA4Z-76" style="edgeStyle=orthogonalEdgeStyle;rounded=0;orthogonalLoop=1;jettySize=auto;html=1;entryX=0.5;entryY=0;entryDx=0;entryDy=0;" parent="1" source="gUsLZl85WhMoBVwIoA4Z-73" target="gUsLZl85WhMoBVwIoA4Z-79" edge="1">
          <mxGeometry relative="1" as="geometry">
            <mxPoint x="480.5550000000003" y="1770" as="targetPoint" />
          </mxGeometry>
        </mxCell>
        <mxCell id="gUsLZl85WhMoBVwIoA4Z-73" value="&lt;div&gt;!&amp;gt; Update output variables with initial states.&lt;/div&gt;&lt;div&gt;&amp;nbsp; &amp;nbsp; call output_variables_reset(shd)&lt;/div&gt;&lt;div&gt;&amp;nbsp; &amp;nbsp; call output_variables_update(shd)&lt;/div&gt;" style="whiteSpace=wrap;html=1;fillColor=#CCFFCC;rounded=1;" parent="1" vertex="1">
          <mxGeometry x="360.67" y="1660" width="238.3" height="80" as="geometry" />
        </mxCell>
        <mxCell id="gUsLZl85WhMoBVwIoA4Z-82" value="" style="edgeStyle=orthogonalEdgeStyle;rounded=0;orthogonalLoop=1;jettySize=auto;html=1;" parent="1" source="gUsLZl85WhMoBVwIoA4Z-79" target="gUsLZl85WhMoBVwIoA4Z-81" edge="1">
          <mxGeometry relative="1" as="geometry" />
        </mxCell>
        <mxCell id="gUsLZl85WhMoBVwIoA4Z-79" value="Read in existing basin states for RESUMEFLAG" style="whiteSpace=wrap;html=1;fillColor=#FFFFFF;rounded=1;" parent="1" vertex="1">
          <mxGeometry x="398.33" y="1770" width="164.45" height="70" as="geometry" />
        </mxCell>
        <mxCell id="p7XIC2yZWXtVVPwYK1yz-15" style="edgeStyle=orthogonalEdgeStyle;rounded=0;orthogonalLoop=1;jettySize=auto;html=1;" parent="1" source="gUsLZl85WhMoBVwIoA4Z-81" target="p7XIC2yZWXtVVPwYK1yz-14" edge="1">
          <mxGeometry relative="1" as="geometry" />
        </mxCell>
        <mxCell id="gUsLZl85WhMoBVwIoA4Z-81" value="Time-stepping operations" style="rounded=1;whiteSpace=wrap;html=1;fillColor=#FFFFFF;" parent="1" vertex="1">
          <mxGeometry x="396.87" y="1870" width="165.91" height="60" as="geometry" />
        </mxCell>
        <mxCell id="gUsLZl85WhMoBVwIoA4Z-90" style="edgeStyle=orthogonalEdgeStyle;rounded=0;orthogonalLoop=1;jettySize=auto;html=1;entryX=0.5;entryY=0;entryDx=0;entryDy=0;" parent="1" source="gUsLZl85WhMoBVwIoA4Z-87" target="gUsLZl85WhMoBVwIoA4Z-89" edge="1">
          <mxGeometry relative="1" as="geometry" />
        </mxCell>
        <mxCell id="gUsLZl85WhMoBVwIoA4Z-87" value="End of initialization,&lt;div&gt;Start MESH&lt;/div&gt;" style="shape=process;whiteSpace=wrap;html=1;backgroundOutline=1;" parent="1" vertex="1">
          <mxGeometry x="418.7" y="2050" width="120" height="60" as="geometry" />
        </mxCell>
        <mxCell id="gUsLZl85WhMoBVwIoA4Z-93" value="" style="group" parent="1" vertex="1" connectable="0">
          <mxGeometry x="205.56" y="2150" width="540" height="270" as="geometry" />
        </mxCell>
        <mxCell id="gUsLZl85WhMoBVwIoA4Z-89" value="" style="rounded=0;whiteSpace=wrap;html=1;align=left;" parent="gUsLZl85WhMoBVwIoA4Z-93" vertex="1">
          <mxGeometry width="540" height="270" as="geometry" />
        </mxCell>
        <mxCell id="gUsLZl85WhMoBVwIoA4Z-91" value="do while (.not. ENDDATE .and. .not. ENDDATA)" style="text;html=1;align=center;verticalAlign=middle;whiteSpace=wrap;rounded=0;" parent="gUsLZl85WhMoBVwIoA4Z-93" vertex="1">
          <mxGeometry y="10" width="290" height="20" as="geometry" />
        </mxCell>
        <mxCell id="gUsLZl85WhMoBVwIoA4Z-92" value="&lt;div style=&quot;text-align: left;&quot;&gt;&lt;span style=&quot;background-color: initial;&quot;&gt;1.&amp;nbsp;call output_variables_reset(shd)&lt;/span&gt;&lt;/div&gt;&lt;div style=&quot;text-align: left;&quot;&gt;2.&amp;nbsp;if (ro%RUNCLIM) -&amp;gt; read_input_forcing_frame(ierr)&lt;/div&gt;&lt;div style=&quot;text-align: left;&quot;&gt;3.&amp;nbsp;if (ro%RUNGRID) -&amp;gt; call run_within_grid_mpi_irecv(fls, shd, cm)&lt;/div&gt;&lt;div style=&quot;text-align: left;&quot;&gt;4.&amp;nbsp;if (ro%RUNTILE) -&amp;gt;&amp;nbsp;&lt;span style=&quot;background-color: initial;&quot;&gt;call run_within_tile(fls, shd, cm),&lt;/span&gt;&lt;span style=&quot;background-color: initial;&quot;&gt;&amp;nbsp;call run_within_grid(fls, shd, cm)&lt;/span&gt;&lt;/div&gt;&lt;div style=&quot;text-align: left;&quot;&gt;&lt;span style=&quot;background-color: initial;&quot;&gt;5.&amp;nbsp;&lt;/span&gt;&lt;span style=&quot;background-color: initial;&quot;&gt;if (ro%RUNGRID) -&amp;gt;&amp;nbsp;&lt;/span&gt;&lt;span style=&quot;background-color: initial;&quot;&gt;call run_within_grid_mpi_isend(fls, shd, cm),&amp;nbsp;&lt;/span&gt;&lt;span style=&quot;background-color: initial;&quot;&gt;call run_between_grid(fls, shd, cm)&lt;/span&gt;&lt;/div&gt;&lt;div style=&quot;text-align: left;&quot;&gt;&lt;span style=&quot;background-color: initial;&quot;&gt;6.&amp;nbsp;&lt;/span&gt;&lt;span style=&quot;background-color: initial;&quot;&gt;if (ISHEADNODE):&lt;/span&gt;&lt;/div&gt;&lt;div style=&quot;text-align: left;&quot;&gt;&lt;span style=&quot;background-color: initial;&quot;&gt;&lt;div&gt;&lt;span style=&quot;white-space: pre;&quot;&gt;&#x9;&lt;/span&gt;call output_files_update(fls, shd)&lt;/div&gt;&lt;div&gt;&amp;nbsp;&lt;span style=&quot;white-space: pre;&quot;&gt;&#x9;&lt;/span&gt;call run_save_basin_output(fls, shd, cm)&lt;/div&gt;&lt;div&gt;&lt;span style=&quot;white-space: pre;&quot;&gt;&#x9;&lt;/span&gt;if day is same and&amp;nbsp;automatic calibration is active -&amp;gt; call stats_update_stfl_daily(fls)&lt;br&gt;&lt;/div&gt;&lt;div&gt;7. Print Status to console&lt;/div&gt;&lt;div&gt;8.&amp;nbsp;call resumerun_save(fls, shd, cm),&amp;nbsp;&lt;span style=&quot;background-color: initial;&quot;&gt;call counter_update()&lt;/span&gt;&lt;/div&gt;&lt;div&gt;&lt;span style=&quot;background-color: initial;&quot;&gt;9. Check&amp;nbsp;&lt;/span&gt;&lt;span style=&quot;background-color: initial;&quot;&gt;ENDDATE for termination of loop&lt;/span&gt;&lt;/div&gt;&lt;/span&gt;&lt;/div&gt;" style="rounded=1;whiteSpace=wrap;html=1;fillColor=#CCFFCC;" parent="gUsLZl85WhMoBVwIoA4Z-93" vertex="1">
          <mxGeometry x="20.5" y="40" width="498.99" height="220" as="geometry" />
        </mxCell>
        <mxCell id="gUsLZl85WhMoBVwIoA4Z-95" value="" style="edgeStyle=orthogonalEdgeStyle;rounded=0;orthogonalLoop=1;jettySize=auto;html=1;" parent="1" source="gUsLZl85WhMoBVwIoA4Z-89" edge="1">
          <mxGeometry relative="1" as="geometry">
            <mxPoint x="476" y="2450" as="targetPoint" />
          </mxGeometry>
        </mxCell>
        <mxCell id="gUsLZl85WhMoBVwIoA4Z-98" value="" style="edgeStyle=orthogonalEdgeStyle;rounded=0;orthogonalLoop=1;jettySize=auto;html=1;" parent="1" source="gUsLZl85WhMoBVwIoA4Z-96" target="gUsLZl85WhMoBVwIoA4Z-97" edge="1">
          <mxGeometry relative="1" as="geometry" />
        </mxCell>
        <mxCell id="gUsLZl85WhMoBVwIoA4Z-99" value="Yes" style="edgeLabel;html=1;align=center;verticalAlign=middle;resizable=0;points=[];" parent="gUsLZl85WhMoBVwIoA4Z-98" vertex="1" connectable="0">
          <mxGeometry x="-0.099" y="2" relative="1" as="geometry">
            <mxPoint as="offset" />
          </mxGeometry>
        </mxCell>
        <mxCell id="gUsLZl85WhMoBVwIoA4Z-136" style="edgeStyle=orthogonalEdgeStyle;rounded=0;orthogonalLoop=1;jettySize=auto;html=1;entryX=1;entryY=0.5;entryDx=0;entryDy=0;" parent="1" source="gUsLZl85WhMoBVwIoA4Z-96" target="gUsLZl85WhMoBVwIoA4Z-134" edge="1">
          <mxGeometry relative="1" as="geometry">
            <Array as="points">
              <mxPoint x="750" y="2470" />
              <mxPoint x="750" y="3290" />
            </Array>
          </mxGeometry>
        </mxCell>
        <mxCell id="gUsLZl85WhMoBVwIoA4Z-137" value="No" style="edgeLabel;html=1;align=center;verticalAlign=middle;resizable=0;points=[];" parent="gUsLZl85WhMoBVwIoA4Z-136" vertex="1" connectable="0">
          <mxGeometry x="-0.8333" y="-2" relative="1" as="geometry">
            <mxPoint as="offset" />
          </mxGeometry>
        </mxCell>
        <mxCell id="gUsLZl85WhMoBVwIoA4Z-96" value="Is Head node?" style="whiteSpace=wrap;html=1;fillColor=#FFFFFF;rounded=1;" parent="1" vertex="1">
          <mxGeometry x="402" y="2450" width="151" height="50" as="geometry" />
        </mxCell>
        <mxCell id="gUsLZl85WhMoBVwIoA4Z-97" value="&lt;div&gt;call output_files_finalize(fls, shd)&lt;/div&gt;&lt;div&gt;&amp;nbsp; &amp;nbsp; call run_save_basin_output_finalize(fls, shd, cm)&lt;/div&gt;" style="whiteSpace=wrap;html=1;fillColor=#CCFFCC;rounded=1;" parent="1" vertex="1">
          <mxGeometry x="354" y="2540" width="246" height="60" as="geometry" />
        </mxCell>
        <mxCell id="gUsLZl85WhMoBVwIoA4Z-103" value="" style="edgeStyle=orthogonalEdgeStyle;rounded=0;orthogonalLoop=1;jettySize=auto;html=1;" parent="1" source="gUsLZl85WhMoBVwIoA4Z-100" target="gUsLZl85WhMoBVwIoA4Z-102" edge="1">
          <mxGeometry relative="1" as="geometry" />
        </mxCell>
        <mxCell id="gUsLZl85WhMoBVwIoA4Z-105" value="Yes" style="edgeLabel;html=1;align=center;verticalAlign=middle;resizable=0;points=[];" parent="gUsLZl85WhMoBVwIoA4Z-103" vertex="1" connectable="0">
          <mxGeometry x="-0.0957" y="-2" relative="1" as="geometry">
            <mxPoint as="offset" />
          </mxGeometry>
        </mxCell>
        <mxCell id="gUsLZl85WhMoBVwIoA4Z-107" style="edgeStyle=orthogonalEdgeStyle;rounded=0;orthogonalLoop=1;jettySize=auto;html=1;entryX=0.5;entryY=0;entryDx=0;entryDy=0;" parent="1" source="gUsLZl85WhMoBVwIoA4Z-100" target="gUsLZl85WhMoBVwIoA4Z-106" edge="1">
          <mxGeometry relative="1" as="geometry" />
        </mxCell>
        <mxCell id="gUsLZl85WhMoBVwIoA4Z-100" value="&lt;div&gt;ISHEADNODE .and. mtsflg%AUTOCALIBRATIONFLAG &amp;gt; 0&lt;/div&gt;" style="rhombus;whiteSpace=wrap;html=1;rounded=1;fillColor=#F19C99;" parent="1" vertex="1">
          <mxGeometry x="329.39" y="2630" width="296.23" height="100" as="geometry" />
        </mxCell>
        <mxCell id="gUsLZl85WhMoBVwIoA4Z-101" style="edgeStyle=orthogonalEdgeStyle;rounded=0;orthogonalLoop=1;jettySize=auto;html=1;entryX=0.5;entryY=0;entryDx=0;entryDy=0;" parent="1" source="gUsLZl85WhMoBVwIoA4Z-97" target="gUsLZl85WhMoBVwIoA4Z-100" edge="1">
          <mxGeometry relative="1" as="geometry" />
        </mxCell>
        <mxCell id="gUsLZl85WhMoBVwIoA4Z-102" value="call stats_write(fls)" style="whiteSpace=wrap;html=1;fillColor=#FFE599;rounded=1;" parent="1" vertex="1">
          <mxGeometry x="147.5" y="2660" width="125" height="40" as="geometry" />
        </mxCell>
        <mxCell id="gUsLZl85WhMoBVwIoA4Z-109" style="edgeStyle=orthogonalEdgeStyle;rounded=0;orthogonalLoop=1;jettySize=auto;html=1;entryX=1;entryY=0.5;entryDx=0;entryDy=0;" parent="1" source="gUsLZl85WhMoBVwIoA4Z-106" target="gUsLZl85WhMoBVwIoA4Z-108" edge="1">
          <mxGeometry relative="1" as="geometry">
            <mxPoint x="335" y="2790" as="targetPoint" />
          </mxGeometry>
        </mxCell>
        <mxCell id="gUsLZl85WhMoBVwIoA4Z-110" value="Yes" style="edgeLabel;html=1;align=center;verticalAlign=middle;resizable=0;points=[];" parent="gUsLZl85WhMoBVwIoA4Z-109" vertex="1" connectable="0">
          <mxGeometry x="-0.1655" y="2" relative="1" as="geometry">
            <mxPoint as="offset" />
          </mxGeometry>
        </mxCell>
        <mxCell id="gUsLZl85WhMoBVwIoA4Z-113" style="edgeStyle=orthogonalEdgeStyle;rounded=0;orthogonalLoop=1;jettySize=auto;html=1;entryX=0.5;entryY=0;entryDx=0;entryDy=0;" parent="1" source="gUsLZl85WhMoBVwIoA4Z-106" target="gUsLZl85WhMoBVwIoA4Z-111" edge="1">
          <mxGeometry relative="1" as="geometry" />
        </mxCell>
        <mxCell id="gUsLZl85WhMoBVwIoA4Z-106" value="&lt;div&gt;ro%RUNTILE == True&lt;/div&gt;" style="rhombus;whiteSpace=wrap;html=1;rounded=1;fillColor=#F19C99;" parent="1" vertex="1">
          <mxGeometry x="385.74999999999994" y="2760" width="186.89" height="60" as="geometry" />
        </mxCell>
        <mxCell id="gUsLZl85WhMoBVwIoA4Z-108" value="&lt;div&gt;call run_within_tile_finalize(fls, shd, cm)&lt;/div&gt;&lt;div&gt;&amp;nbsp; &amp;nbsp; &amp;nbsp; &amp;nbsp; call run_within_grid_finalize(fls, shd, cm)&lt;/div&gt;" style="whiteSpace=wrap;html=1;fillColor=#CCFFCC;rounded=1;" parent="1" vertex="1">
          <mxGeometry x="70" y="2755" width="225" height="70" as="geometry" />
        </mxCell>
        <mxCell id="gUsLZl85WhMoBVwIoA4Z-115" style="edgeStyle=orthogonalEdgeStyle;rounded=0;orthogonalLoop=1;jettySize=auto;html=1;entryX=1;entryY=0.5;entryDx=0;entryDy=0;" parent="1" source="gUsLZl85WhMoBVwIoA4Z-111" target="gUsLZl85WhMoBVwIoA4Z-114" edge="1">
          <mxGeometry relative="1" as="geometry">
            <mxPoint x="340" y="2872.5" as="targetPoint" />
          </mxGeometry>
        </mxCell>
        <mxCell id="gUsLZl85WhMoBVwIoA4Z-120" value="Yes" style="edgeLabel;html=1;align=center;verticalAlign=middle;resizable=0;points=[];" parent="gUsLZl85WhMoBVwIoA4Z-115" vertex="1" connectable="0">
          <mxGeometry x="-0.1173" y="3" relative="1" as="geometry">
            <mxPoint as="offset" />
          </mxGeometry>
        </mxCell>
        <mxCell id="gUsLZl85WhMoBVwIoA4Z-121" style="edgeStyle=orthogonalEdgeStyle;rounded=0;orthogonalLoop=1;jettySize=auto;html=1;entryX=0.5;entryY=0;entryDx=0;entryDy=0;" parent="1" source="gUsLZl85WhMoBVwIoA4Z-111" target="gUsLZl85WhMoBVwIoA4Z-125" edge="1">
          <mxGeometry relative="1" as="geometry">
            <mxPoint x="479.19500000000016" y="2930" as="targetPoint" />
          </mxGeometry>
        </mxCell>
        <mxCell id="gUsLZl85WhMoBVwIoA4Z-111" value="&lt;div&gt;ro%RUNGRID == True&lt;/div&gt;" style="rhombus;whiteSpace=wrap;html=1;rounded=1;fillColor=#F19C99;" parent="1" vertex="1">
          <mxGeometry x="385.61999999999995" y="2840" width="186.89" height="60" as="geometry" />
        </mxCell>
        <mxCell id="gUsLZl85WhMoBVwIoA4Z-114" value="call run_between_grid_finalize(fls, shd, cm)" style="whiteSpace=wrap;html=1;fillColor=#CCFFCC;rounded=1;" parent="1" vertex="1">
          <mxGeometry x="70" y="2845" width="230" height="55" as="geometry" />
        </mxCell>
        <mxCell id="gUsLZl85WhMoBVwIoA4Z-129" style="edgeStyle=orthogonalEdgeStyle;rounded=0;orthogonalLoop=1;jettySize=auto;html=1;" parent="1" source="gUsLZl85WhMoBVwIoA4Z-125" target="gUsLZl85WhMoBVwIoA4Z-127" edge="1">
          <mxGeometry relative="1" as="geometry" />
        </mxCell>
        <mxCell id="gUsLZl85WhMoBVwIoA4Z-125" value="call resumerun_save(fls, shd, cm)" style="whiteSpace=wrap;html=1;fillColor=#CCFFCC;rounded=1;" parent="1" vertex="1">
          <mxGeometry x="390.89000000000004" y="3020" width="176.34" height="40" as="geometry" />
        </mxCell>
        <mxCell id="gUsLZl85WhMoBVwIoA4Z-131" style="edgeStyle=orthogonalEdgeStyle;rounded=0;orthogonalLoop=1;jettySize=auto;html=1;entryX=1;entryY=0.5;entryDx=0;entryDy=0;" parent="1" source="gUsLZl85WhMoBVwIoA4Z-127" target="gUsLZl85WhMoBVwIoA4Z-130" edge="1">
          <mxGeometry relative="1" as="geometry">
            <mxPoint x="340" y="3120" as="targetPoint" />
          </mxGeometry>
        </mxCell>
        <mxCell id="p7XIC2yZWXtVVPwYK1yz-20" style="edgeStyle=orthogonalEdgeStyle;rounded=0;orthogonalLoop=1;jettySize=auto;html=1;entryX=0.5;entryY=0;entryDx=0;entryDy=0;" parent="1" source="gUsLZl85WhMoBVwIoA4Z-127" target="p7XIC2yZWXtVVPwYK1yz-18" edge="1">
          <mxGeometry relative="1" as="geometry" />
        </mxCell>
        <mxCell id="gUsLZl85WhMoBVwIoA4Z-127" value="&lt;div&gt;ISHEADNODE == True&lt;/div&gt;" style="rhombus;whiteSpace=wrap;html=1;rounded=1;fillColor=#F19C99;" parent="1" vertex="1">
          <mxGeometry x="385.75" y="3090" width="186.89" height="60" as="geometry" />
        </mxCell>
        <mxCell id="gUsLZl85WhMoBVwIoA4Z-130" value="&lt;div&gt;- Save state in&amp;nbsp;SAVERESUMEFLAG&lt;/div&gt;&lt;div&gt;- Write information into resume file&lt;/div&gt;" style="whiteSpace=wrap;html=1;fillColor=#FFFFFF;rounded=1;" parent="1" vertex="1">
          <mxGeometry x="135" y="3085" width="210" height="70" as="geometry" />
        </mxCell>
        <mxCell id="gUsLZl85WhMoBVwIoA4Z-135" value="" style="edgeStyle=orthogonalEdgeStyle;rounded=0;orthogonalLoop=1;jettySize=auto;html=1;exitX=0;exitY=0.5;exitDx=0;exitDy=0;" parent="1" source="p7XIC2yZWXtVVPwYK1yz-18" target="gUsLZl85WhMoBVwIoA4Z-132" edge="1">
          <mxGeometry relative="1" as="geometry" />
        </mxCell>
        <mxCell id="gUsLZl85WhMoBVwIoA4Z-132" value="Print basin vertical water balance totals" style="whiteSpace=wrap;html=1;fillColor=#FFFFFF;rounded=1;" parent="1" vertex="1">
          <mxGeometry x="155.45999999999998" y="3190" width="182.5" height="40" as="geometry" />
        </mxCell>
        <mxCell id="gUsLZl85WhMoBVwIoA4Z-134" value="End of program" style="whiteSpace=wrap;html=1;fillColor=#FFFFFF;rounded=1;" parent="1" vertex="1">
          <mxGeometry x="424.25" y="3270" width="117" height="40" as="geometry" />
        </mxCell>
        <mxCell id="p7XIC2yZWXtVVPwYK1yz-7" style="edgeStyle=orthogonalEdgeStyle;rounded=0;orthogonalLoop=1;jettySize=auto;html=1;" parent="1" source="p7XIC2yZWXtVVPwYK1yz-3" target="p7XIC2yZWXtVVPwYK1yz-6" edge="1">
          <mxGeometry relative="1" as="geometry" />
        </mxCell>
        <mxCell id="p7XIC2yZWXtVVPwYK1yz-3" value="- call get_start_date_components_from_forcing_files&lt;div&gt;- Set current timestep&lt;/div&gt;" style="whiteSpace=wrap;html=1;fillColor=#FFE599;rounded=1;" parent="1" vertex="1">
          <mxGeometry x="330.09000000000003" y="720" width="284.71" height="60" as="geometry" />
        </mxCell>
        <mxCell id="p7XIC2yZWXtVVPwYK1yz-9" value="" style="edgeStyle=orthogonalEdgeStyle;rounded=0;orthogonalLoop=1;jettySize=auto;html=1;" parent="1" source="p7XIC2yZWXtVVPwYK1yz-6" target="p7XIC2yZWXtVVPwYK1yz-8" edge="1">
          <mxGeometry relative="1" as="geometry" />
        </mxCell>
        <mxCell id="p7XIC2yZWXtVVPwYK1yz-10" style="edgeStyle=orthogonalEdgeStyle;rounded=0;orthogonalLoop=1;jettySize=auto;html=1;entryX=0.5;entryY=0;entryDx=0;entryDy=0;" parent="1" source="p7XIC2yZWXtVVPwYK1yz-6" target="gUsLZl85WhMoBVwIoA4Z-26" edge="1">
          <mxGeometry relative="1" as="geometry" />
        </mxCell>
        <mxCell id="p7XIC2yZWXtVVPwYK1yz-6" value="&lt;div&gt;ro%RUNCLIM == True&lt;/div&gt;" style="rhombus;whiteSpace=wrap;html=1;rounded=1;fillColor=#F19C99;" parent="1" vertex="1">
          <mxGeometry x="379" y="810" width="186.89" height="60" as="geometry" />
        </mxCell>
        <mxCell id="p7XIC2yZWXtVVPwYK1yz-8" value="call skip_to_first_forcing_record" style="whiteSpace=wrap;html=1;fillColor=#FFE599;rounded=1;" parent="1" vertex="1">
          <mxGeometry x="120" y="820" width="180" height="40" as="geometry" />
        </mxCell>
        <mxCell id="p7XIC2yZWXtVVPwYK1yz-13" value="Read and process water balance totals and daily streamflow values" style="rounded=1;whiteSpace=wrap;html=1;fillColor=#FFFFFF;" parent="1" vertex="1">
          <mxGeometry x="172.05" y="1960" width="165.91" height="60" as="geometry" />
        </mxCell>
        <mxCell id="p7XIC2yZWXtVVPwYK1yz-16" style="edgeStyle=orthogonalEdgeStyle;rounded=0;orthogonalLoop=1;jettySize=auto;html=1;entryX=1;entryY=0.5;entryDx=0;entryDy=0;" parent="1" source="p7XIC2yZWXtVVPwYK1yz-14" target="p7XIC2yZWXtVVPwYK1yz-13" edge="1">
          <mxGeometry relative="1" as="geometry" />
        </mxCell>
        <mxCell id="p7XIC2yZWXtVVPwYK1yz-17" style="edgeStyle=orthogonalEdgeStyle;rounded=0;orthogonalLoop=1;jettySize=auto;html=1;entryX=0.5;entryY=0;entryDx=0;entryDy=0;" parent="1" source="p7XIC2yZWXtVVPwYK1yz-14" target="gUsLZl85WhMoBVwIoA4Z-87" edge="1">
          <mxGeometry relative="1" as="geometry" />
        </mxCell>
        <mxCell id="p7XIC2yZWXtVVPwYK1yz-14" value="&lt;div&gt;ISHEADNODE == True&lt;/div&gt;" style="rhombus;whiteSpace=wrap;html=1;rounded=1;fillColor=#F19C99;" parent="1" vertex="1">
          <mxGeometry x="385.66999999999996" y="1960" width="186.89" height="60" as="geometry" />
        </mxCell>
        <mxCell id="p7XIC2yZWXtVVPwYK1yz-18" value="&lt;div&gt;ro%RUNBALWB == True&lt;/div&gt;" style="rhombus;whiteSpace=wrap;html=1;rounded=1;fillColor=#F19C99;" parent="1" vertex="1">
          <mxGeometry x="385.61" y="3180" width="186.89" height="60" as="geometry" />
        </mxCell>
        <mxCell id="p7XIC2yZWXtVVPwYK1yz-21" style="edgeStyle=orthogonalEdgeStyle;rounded=0;orthogonalLoop=1;jettySize=auto;html=1;entryX=0.461;entryY=-0.035;entryDx=0;entryDy=0;entryPerimeter=0;" parent="1" source="p7XIC2yZWXtVVPwYK1yz-18" target="gUsLZl85WhMoBVwIoA4Z-134" edge="1">
          <mxGeometry relative="1" as="geometry" />
        </mxCell>
        <mxCell id="p7XIC2yZWXtVVPwYK1yz-22" value="&lt;div&gt;&lt;font size=&quot;1&quot;&gt;Modules\mpi_module\mpi_stub.f90: MPI_Init&lt;/font&gt;&lt;/div&gt;&lt;div&gt;&lt;font size=&quot;1&quot;&gt;Modules\mpi_module\mpi_stub.f90: MPI_Comm_size&lt;/font&gt;&lt;/div&gt;&lt;div&gt;&lt;font size=&quot;1&quot;&gt;Modules\mpi_module\mpi_stub.f90: MPI_Comm_rank&lt;/font&gt;&lt;/div&gt;&lt;div&gt;&lt;font size=&quot;1&quot;&gt;Driver\MESH_Driver\module_files.f90: Init_fls&lt;/font&gt;&lt;/div&gt;&lt;div&gt;&lt;font size=&quot;1&quot;&gt;Driver\MESH_Driver\read_initial_inputs.f90: READ_INITIAL_INPUTS&lt;/font&gt;&lt;/div&gt;&lt;div&gt;&lt;font size=&quot;1&quot;&gt;Modules\mpi_module\mpi_stub.f90: MPI_Barrier&lt;/font&gt;&lt;/div&gt;&lt;div&gt;&lt;font size=&quot;1&quot;&gt;&lt;div&gt;Modules\io_modules\input_forcing.f90: open_input_forcing_files&lt;/div&gt;&lt;div&gt;Modules\io_modules\input_forcing.f90: get_start_date_components_from_forcing_files&lt;/div&gt;&lt;div&gt;Modules\io_modules\input_forcing.f90: skip_to_first_forcing_record&lt;/div&gt;&lt;/font&gt;&lt;/div&gt;&lt;div&gt;&lt;span style=&quot;font-size: x-small; background-color: initial;&quot;&gt;Driver\MESH_Driver\output_variables.f90: output_variables_init&lt;/span&gt;&lt;/div&gt;&lt;div&gt;&lt;font size=&quot;1&quot;&gt;Driver\MESH_Driver\output_variables.f90: output_variables_activate&lt;/font&gt;&lt;/div&gt;&lt;div&gt;&lt;font size=&quot;1&quot;&gt;Driver\MESH_Driver\sa_mesh_run_within_tile.f90: run_within_tile_init&lt;/font&gt;&lt;/div&gt;&lt;div&gt;&lt;font size=&quot;1&quot;&gt;Driver\MESH_Driver\sa_mesh_run_within_grid.f90: run_within_grid_init&lt;/font&gt;&lt;/div&gt;&lt;div&gt;&lt;font size=&quot;1&quot;&gt;Driver\MESH_Driver\sa_mesh_run_between_grid.f90: run_between_grid_init&lt;/font&gt;&lt;/div&gt;&lt;div&gt;&lt;font size=&quot;1&quot;&gt;Driver\MESH_Driver\output_files.f90: output_files_init&lt;/font&gt;&lt;/div&gt;&lt;div&gt;&lt;font size=&quot;1&quot;&gt;Driver\MESH_Driver\save_basin_output.f90: run_save_basin_output_init&lt;/font&gt;&lt;/div&gt;&lt;div&gt;&lt;font size=&quot;1&quot;&gt;Modules\simulation_statistics\SIMSTATS.F90: stats_init&lt;/font&gt;&lt;/div&gt;&lt;div&gt;&lt;font size=&quot;1&quot;&gt;Driver\MESH_Driver\resumerun_read.f90: resumerun_read&lt;/font&gt;&lt;/div&gt;&lt;div&gt;&lt;font size=&quot;1&quot;&gt;Driver\MESH_Driver\WRITE_R2C_HEADER.F90: WRITE_R2C_HEADER&lt;/font&gt;&lt;/div&gt;&lt;div&gt;&lt;font size=&quot;1&quot;&gt;Driver\MESH_Driver\read_initial_values_r2c.f90: read_initial_values_r2c&lt;/font&gt;&lt;/div&gt;&lt;div&gt;&lt;font size=&quot;1&quot;&gt;Driver\MESH_Driver\output_variables.f90: output_variables_reset&lt;/font&gt;&lt;/div&gt;&lt;div&gt;&lt;font size=&quot;1&quot;&gt;Driver\MESH_Driver\output_variables.f90: output_variables_update&lt;/font&gt;&lt;/div&gt;&lt;div&gt;&lt;span style=&quot;font-size: x-small; background-color: initial;&quot;&gt;Driver\MESH_Driver\sa_mesh_run_within_grid.f90: run_within_grid_mpi_irecv&lt;/span&gt;&lt;/div&gt;&lt;div&gt;&lt;font size=&quot;1&quot;&gt;Driver\MESH_Driver\sa_mesh_run_within_tile.f90: run_within_tile&lt;/font&gt;&lt;/div&gt;&lt;div&gt;&lt;font size=&quot;1&quot;&gt;Driver\MESH_Driver\sa_mesh_run_within_grid.f90: run_within_grid&lt;/font&gt;&lt;/div&gt;&lt;div&gt;&lt;font size=&quot;1&quot;&gt;Driver\MESH_Driver\sa_mesh_run_within_grid.f90: run_within_grid_mpi_isend&lt;/font&gt;&lt;/div&gt;&lt;div&gt;&lt;font size=&quot;1&quot;&gt;Driver\MESH_Driver\sa_mesh_run_between_grid.f90: run_between_grid&lt;/font&gt;&lt;/div&gt;&lt;div&gt;&lt;font size=&quot;1&quot;&gt;Driver\MESH_Driver\output_files.f90: output_files_update&lt;/font&gt;&lt;/div&gt;&lt;div&gt;&lt;font size=&quot;1&quot;&gt;Driver\MESH_Driver\save_basin_output.f90: run_save_basin_output&lt;/font&gt;&lt;/div&gt;&lt;div&gt;&lt;font size=&quot;1&quot;&gt;Modules\simulation_statistics\SIMSTATS.F90: stats_update_stfl_daily&lt;/font&gt;&lt;/div&gt;&lt;div&gt;&lt;font size=&quot;1&quot;&gt;Driver\MESH_Driver\resumerun_save.f90: resumerun_save&lt;/font&gt;&lt;/div&gt;&lt;div&gt;&lt;font size=&quot;1&quot;&gt;Driver\MESH_Driver\module_dates.f90: counter_update&lt;/font&gt;&lt;/div&gt;&lt;div&gt;&lt;font size=&quot;1&quot;&gt;Driver\MESH_Driver\output_files.f90: output_files_finalize&lt;/font&gt;&lt;/div&gt;&lt;div&gt;&lt;font size=&quot;1&quot;&gt;Driver\MESH_Driver\save_basin_output.f90: run_save_basin_output_finalize&lt;/font&gt;&lt;/div&gt;&lt;div&gt;&lt;font size=&quot;1&quot;&gt;Modules\simulation_statistics\SIMSTATS.F90: stats_write&lt;/font&gt;&lt;/div&gt;&lt;div&gt;&lt;font size=&quot;1&quot;&gt;Driver\MESH_Driver\sa_mesh_run_within_tile.f90: run_within_tile_finalize&lt;/font&gt;&lt;/div&gt;&lt;div&gt;&lt;font size=&quot;1&quot;&gt;Driver\MESH_Driver\sa_mesh_run_within_grid.f90: run_within_grid_finalize&lt;/font&gt;&lt;/div&gt;&lt;div&gt;&lt;font size=&quot;1&quot;&gt;Driver\MESH_Driver\sa_mesh_run_between_grid.f90: run_between_grid_finalize&lt;/font&gt;&lt;/div&gt;&lt;div&gt;&lt;font size=&quot;1&quot;&gt;Modules\climate_forcing_module\climate_forcing_module.f90: climate_module_finalize&lt;/font&gt;&lt;/div&gt;&lt;div&gt;&lt;font size=&quot;1&quot;&gt;Driver\MESH_Driver\resumerun_save.f90: resumerun_save&lt;/font&gt;&lt;/div&gt;" style="rounded=0;whiteSpace=wrap;html=1;align=left;" parent="1" vertex="1">
          <mxGeometry width="360" height="640" as="geometry" />
        </mxCell>
        <mxCell id="UAfRKVxCkWyeIEof-MYr-1" style="edgeStyle=orthogonalEdgeStyle;rounded=0;orthogonalLoop=1;jettySize=auto;html=1;exitX=0.5;exitY=1;exitDx=0;exitDy=0;" parent="1" source="UAfRKVxCkWyeIEof-MYr-2" target="UAfRKVxCkWyeIEof-MYr-4" edge="1">
          <mxGeometry relative="1" as="geometry" />
        </mxCell>
        <mxCell id="UAfRKVxCkWyeIEof-MYr-2" value="call read_initial_values_r2c:&lt;br&gt;reads from from&amp;nbsp;MESH_initial_values.r2c" style="whiteSpace=wrap;html=1;fillColor=#CCFFCC;rounded=1;" parent="1" vertex="1">
          <mxGeometry x="362.15" y="1520" width="237.85" height="50" as="geometry" />
        </mxCell>
        <mxCell id="UAfRKVxCkWyeIEof-MYr-3" style="edgeStyle=orthogonalEdgeStyle;rounded=0;orthogonalLoop=1;jettySize=auto;html=1;exitX=0.5;exitY=1;exitDx=0;exitDy=0;entryX=0.5;entryY=0;entryDx=0;entryDy=0;" parent="1" source="UAfRKVxCkWyeIEof-MYr-4" target="gUsLZl85WhMoBVwIoA4Z-73" edge="1">
          <mxGeometry relative="1" as="geometry">
            <mxPoint x="479.13" y="1650" as="targetPoint" />
          </mxGeometry>
        </mxCell>
        <mxCell id="UAfRKVxCkWyeIEof-MYr-4" value="call MPI_Barrier" style="whiteSpace=wrap;html=1;fillColor=#FFE599;rounded=1;" parent="1" vertex="1">
          <mxGeometry x="411.15" y="1590" width="141.3" height="40" as="geometry" />
        </mxCell>
      </root>
    </mxGraphModel>
  </diagram>
</mxfile>
